<?xml version="1.0" encoding="UTF-8"?>
<svg id="Layer_1" data-name="Layer 1" xmlns="http://www.w3.org/2000/svg" viewBox="0 0 612 792">
  <defs>
    <style>
      .cls-1 {
        fill: none;
        stroke: #f4e3ef;
        stroke-miterlimit: 10;
        stroke-width: 8px;
      }

      .cls-2 {
        font-size: 41.1px;
        letter-spacing: .04em;
      }

      .cls-2, .cls-3, .cls-4, .cls-5 {
        fill: #f4e3ef;
      }

      .cls-2, .cls-4, .cls-5 {
        font-family: ArialRoundedMTBold, 'Arial Rounded MT Bold';
      }

      .cls-4 {
        font-size: 25.73px;
      }

      .cls-5 {
        font-size: 25.73px;
      }
    </style>
  </defs>
  <path class="cls-3" d="M152.45,546.48c-.52,0-1.05-.2-1.44-.61-1.4-1.44-2.78-2.92-4.12-4.38-.75-.81-.69-2.08.13-2.83.82-.75,2.08-.69,2.83.13,1.31,1.44,2.68,2.88,4.05,4.3.77.79.75,2.06-.05,2.83-.39.38-.89.56-1.39.56ZM465.74,539.8c-.47,0-.95-.17-1.33-.5-.83-.73-.9-2-.17-2.82,1.3-1.46,2.6-2.96,3.86-4.47.71-.85,1.97-.96,2.82-.25.85.71.96,1.97.25,2.82-1.29,1.54-2.62,3.07-3.94,4.56-.4.44-.94.67-1.5.67ZM133.27,523.68c-.62,0-1.23-.29-1.62-.82-1.17-1.61-2.34-3.26-3.47-4.91-.63-.91-.39-2.16.52-2.78s2.16-.39,2.78.52c1.11,1.62,2.26,3.24,3.41,4.82.65.89.45,2.14-.44,2.79-.36.26-.77.38-1.18.38ZM483.93,516.2c-.38,0-.77-.11-1.11-.33-.92-.61-1.17-1.85-.56-2.77,1.1-1.65,2.18-3.32,3.21-4.97.59-.94,1.82-1.22,2.76-.63.94.59,1.22,1.82.63,2.76-1.05,1.68-2.15,3.39-3.27,5.06-.39.58-1.02.89-1.67.89ZM117.45,498.45c-.71,0-1.41-.38-1.77-1.06-.94-1.76-1.87-3.56-2.75-5.34-.49-.99-.09-2.19.9-2.68.99-.49,2.19-.09,2.68.9.87,1.75,1.78,3.51,2.7,5.24.52.97.15,2.19-.82,2.71-.3.16-.62.24-.94.24ZM498.68,490.3c-.29,0-.58-.06-.86-.2-1-.48-1.42-1.67-.94-2.67.85-1.77,1.69-3.58,2.49-5.38.45-1.01,1.63-1.46,2.64-1.01,1.01.45,1.46,1.63,1.01,2.64-.82,1.83-1.67,3.67-2.54,5.48-.34.72-1.06,1.13-1.8,1.13ZM105.3,471.26c-.82,0-1.58-.5-1.88-1.32-.69-1.88-1.35-3.79-1.98-5.68-.35-1.05.22-2.18,1.26-2.53,1.05-.35,2.18.22,2.53,1.26.62,1.86,1.27,3.73,1.95,5.58.38,1.04-.16,2.19-1.19,2.56-.23.08-.46.12-.69.12ZM509.66,462.58c-.2,0-.4-.03-.61-.09-1.05-.33-1.64-1.46-1.3-2.51.59-1.88,1.17-3.78,1.71-5.66.3-1.06,1.41-1.68,2.47-1.37,1.06.3,1.68,1.41,1.37,2.47-.55,1.91-1.13,3.85-1.74,5.76-.27.85-1.06,1.4-1.91,1.4ZM97.07,442.63c-.92,0-1.75-.64-1.95-1.58-.42-1.96-.81-3.95-1.17-5.91-.2-1.09.52-2.13,1.61-2.33,1.09-.19,2.13.52,2.33,1.61.35,1.92.74,3.87,1.15,5.79.23,1.08-.46,2.14-1.54,2.37-.14.03-.28.04-.42.04ZM516.64,433.61c-.11,0-.22,0-.33-.03-1.09-.18-1.82-1.21-1.64-2.3.33-1.93.63-3.89.9-5.84.15-1.09,1.16-1.86,2.26-1.71,1.09.15,1.86,1.16,1.71,2.26-.28,1.98-.58,3.99-.91,5.95-.17.98-1.01,1.67-1.97,1.67ZM519.52,403.96s-.04,0-.06,0c-1.1-.03-1.97-.95-1.94-2.05.05-1.95.08-3.94.08-5.91v-.44c0-1.1.9-2,2-2s2,.9,2,2v.44c0,2-.03,4.03-.08,6.02-.03,1.08-.92,1.94-2,1.94ZM518.23,373.76c-1,0-1.87-.75-1.99-1.78-.22-1.94-.47-3.91-.75-5.86-.15-1.09.61-2.11,1.7-2.26,1.08-.15,2.1.61,2.26,1.7.28,1.98.54,3.99.76,5.97.12,1.1-.67,2.09-1.76,2.21-.08,0-.15.01-.23.01ZM133.05,272.63c-.41,0-.82-.12-1.17-.38-.89-.65-1.09-1.9-.44-2.79,1.18-1.62,2.39-3.24,3.61-4.82.67-.88,1.93-1.04,2.8-.37.88.67,1.04,1.93.37,2.8-1.19,1.55-2.39,3.15-3.54,4.74-.39.54-1,.82-1.62.82ZM473.19,265.06c-.59,0-1.17-.26-1.57-.75-1.22-1.53-2.48-3.07-3.74-4.57-.71-.84-.6-2.11.24-2.82.84-.71,2.11-.6,2.82.24,1.29,1.53,2.57,3.09,3.81,4.65.69.86.55,2.12-.32,2.81-.37.29-.81.44-1.25.44ZM152.19,249.79c-.5,0-1-.19-1.39-.56-.8-.77-.82-2.03-.05-2.83,1.38-1.44,2.81-2.87,4.24-4.28.79-.77,2.05-.76,2.83.03.77.79.76,2.05-.03,2.83-1.4,1.38-2.8,2.79-4.16,4.2-.39.41-.92.61-1.44.61ZM453.07,243.1c-.5,0-.99-.18-1.38-.55-1.42-1.35-2.88-2.7-4.34-4.01-.82-.74-.89-2-.15-2.82.74-.82,2-.89,2.82-.15,1.49,1.34,2.98,2.71,4.42,4.08.8.76.83,2.03.07,2.83-.39.41-.92.62-1.45.62ZM174.3,229.82c-.59,0-1.18-.26-1.58-.77-.68-.87-.53-2.13.34-2.81,1.57-1.23,3.18-2.45,4.78-3.64.89-.66,2.14-.47,2.8.42.66.89.47,2.14-.42,2.8-1.58,1.17-3.16,2.37-4.69,3.58-.37.29-.8.43-1.23.43ZM430.09,224.13c-.4,0-.81-.12-1.16-.37-1.61-1.15-3.24-2.28-4.86-3.37-.92-.62-1.16-1.86-.54-2.78.62-.92,1.86-1.16,2.78-.54,1.65,1.11,3.31,2.27,4.95,3.44.9.64,1.11,1.89.46,2.79-.39.55-1,.84-1.63.84Z"/>
  <g>
    <path class="cls-3" d="M309.84,357.58l-13.89,11.7c-3.44,6.66-4.67,14.88-9.41,20.98-8.81,11.33-22.68,14.59-28.94,7.39-6.13-7.06.86-17.65,8.21-21.78,5.68-3.19,11.51-6,17.52-8.96,1.33-.65,1.77-3.67,2.13-6.62-2.23,2.77-5.55,5.98-9.37,7.2-6.85,2.2-12.44-1.84-15.05-7.6-4.48,7.96-13.78,17.2-21.93,12.55-2.27-1.29-3.92-4.65-4.67-7.65-3.75,7.75-12.63,16.72-22.07,12.33-14.57-6.78-5.55-53.06,16.72-59.62,5.16-1.52,9.93.76,13.07,3.56,1.15-2.78,2.97-4.71,4.98-5.71,1.75-.87,7.47.63,7.12,2.9-1.71,11-4.46,20.94-6.78,31.93-.58,2.76-2.1,12.15,1.22,12.18,5.31.04,10.46-10.64,11.24-15.44,2.23-13.89,7.85-34.03,23.06-38.17,4.69-1.28,9.41.68,12.43,3.41,1.53-2.57,3.28-4.68,4.97-5.44,2-.91,8.04.73,7.46,3.54l-10.18,48.97c6.11-5.08,12.5-10.63,14.69-18.58,2.85-10.34,4.88-20.7,6.89-31.25.78-4.07,1.49-6.72,6-6.79,3.31-.05,7.01,1.74,6.06,7.2,2.72-5.51,12.37-14.44,20.32-9.16,6.1,4.06,3.71,14.88,2.33,21.09l-4.41,19.77c-.22.99,1.09,3.58,1.98,4.06,4.44,2.39,11.38-10.46,12.1-16.07,1.44-11.25,4.13-21.75,11.78-30.04,6.03-6.54,15.71-9.49,22.95-3.62,4.95,4.01,6.28,10.8,6.48,17.13,6.07.29,9.15-4.81,10.27-10.19l8.32-39.99c.55-2.65,4.51-3.5,7.05-3.27,2.05.18,5.47,3.1,4.88,5.89l-11.83,55.29c-.77,3.58-1.99,13.61,1.57,15.35,6.45,3.16,12.29-11.77,13.65-18.03l5.39-24.83c.87-3.99,1.21-6.83,5.96-7.18,2.5-.18,7.59,1.28,6.68,5.57l-7.59,35.6c-.27,1.28.9,4.27,1.9,5.04s4.14-.24,5.07-1.2c11.91-12.24,4.55-28.68,20.62-44.38,6.16-6.02,15.68-6.87,21.71-.6,1.55-2.45,3.42-4.39,5.52-5.1,1.8-.61,7.39,1.32,6.9,3.62l-6.09,28.8c-1.46,6.9-2.94,19.34,4.38,22.66,2.96,1.34,6.88,1.02,9.83-.95,7.53-5.04,11.72-15.51,9.95-23.91-.32-1.52-2.62-4.78-2.01-5.98.84-1.63,5.26-2.01,6.77-1.17,1.63.9,4.14,3.32,4.74,5.75,3.54,14.36-4.63,29.79-18.53,34.28-12.54,4.04-25.32-2.87-27.66-15.48-3.93,7.68-11.8,14.51-21.09,10.52-2.89-1.24-5.2-4.88-6.8-8.76-2.7,5.45-7.12,10.76-13.23,12.59-5.84,1.74-10.92-1.17-12.89-6.46-3.47,4.29-7.04,8.2-11.83,9.65-7.36,2.23-14.1-1.74-15.39-9.28-1-5.88-.12-11.83.59-18.08l-7.04,2.85c-1.57,8.15-3.89,15.36-8.61,21.86-5.23,7.19-14.07,10.9-22.64,7.3-3.32-1.39-6.09-5.3-8.22-8.12-4.41,7.78-13.35,17.68-22.55,12.91-7.46-3.87-4.71-16.56-3.07-23.65l4.02-17.38c.24-1.04-.51-3.17-1.05-3.92-.65-.89-3.98-.45-4.82.43-10.55,10.9-12.89,29.84-15.86,45.53-.41,2.16-2.8,4.28-4.57,4.67-2.71.59-5.89-.3-7.38-3.63ZM490.89,317.33c1.9-5.78,8.75-25.59,1.48-27.42-11.6-2.91-21.58,35.15-13.54,39.71,4.95,2.81,10.58-7.8,12.06-12.3ZM394.43,318.16c-4.32-4.48-3.38-9.88-.18-14.45-10.81-14.84-26.01,36.3-13.11,38.91,7.67,1.55,13.1-18.14,13.29-24.46ZM288.4,342.37c1.54-5.15,7.94-24.58,1.01-25.62-12.25-1.84-21.92,37.86-13.7,40.6,5.93,1.98,11.37-10.53,12.7-14.98ZM233.39,353.89c1.83-5.2,9.71-27.6,2.13-28.58-12.33-1.6-22.3,38.42-14.63,41.58,5.33,2.2,10.91-8.47,12.5-12.99ZM270.89,392.65c6.73-4.21,9.34-10.88,10.91-17.25-6.37,2.51-21.79,10.65-17.01,16.95.83,1.09,4.67,1.19,6.11.29Z"/>
    <path class="cls-3" d="M95.82,399.41c5.07-2.82,9.22-7.77,11.96-12.79,4.84-8.88,8.97-17.6,12.2-27.23l15.79-47.05c1.56-4.64,3.46-8.77,5.68-13.61-14.29-2.06-29.24,2.15-38.3,13.72-7.33,9.36-9.06,24.13-1.47,28.03,1.91.98,5.98-.02,8.53-.29,2.84.85.61,5.86-1.84,7.48-7.47,4.95-17.13,2.37-21.85-5.54-4.83-8.08-4.25-18.01-.27-26.72,11.02-24.08,42.91-31.11,66.25-22.14,1.73.73.66,5.49.77,7.6l2.74,54.48c9.92-23.07,19.16-47.02,33.74-67.32,2.71-2.81,6.06-4.69,9.91-4.27,3.98.44,6.11,3.67,5.18,7.39-5.73,22.83-10.69,45.45-13.08,68.92-1,9.89.13,18.64,2.8,27.75-.21,3.23-5.32,5.68-7.84,5.47-18.49-1.58-2.99-62.75-1.85-75.99-11.43,22.24-20.32,45.13-29.71,68.54-.97,2.41-4.22,4.28-6.22,4.82-1.85.5-6.67-1.27-6.61-3.65.51-20.07,1.05-38.98-.16-59.12-7.32,21.83-14.87,54.74-28.94,73.11-4.97,6.49-11.67,10.87-19.62,11.88s-15.34-1.91-19.43-8.09c-4.09-6.18-4.73-14.31-.52-20.89,3.43-5.37,11.11-7.3,14.03-3.44,2.13,2.81-9.51,5.46-4.84,15.61,1.92,4.18,7.74,6.23,12.96,3.32Z"/>
    <path class="cls-3" d="M173.69,488.24c2.9-11.7,5.75,5.94,16.94,3.06,4.78-1.23,9.63-3.95,12.97-7.98,14.39-17.37,22.43-48.09,25.86-70.26.65-4.19,1.47-7.97,2.39-11.97-15.67-1.88-31.29,6.53-37.47,21.14-3.31,7.81-2.21,18.39,4.81,19.77,1.76.35,5.03-.91,7.5-1.14,2.35.26.89,5.47-.93,6.78-4.75,3.45-10.1,4.49-15.59,2.25-4.23-1.72-8.36-6.14-9.76-11.66-3.31-13.12,2.67-26.38,13.32-34.84,13.78-10.94,31.53-13.4,49.1-8.48,8.82,18.92,13.43,39.17,14.05,60.67,13.11-24.44,23.51-45.49,41.03-66.08,3.55-2.89,7.9-4.72,12.35-1.7,1.76,1.2,2.14,5.01,1.25,7.3-7.55,19.28-13.18,38.65-15.1,59.34-2.25,24.27,7.32,24.8,4.92,28.48s-6.39,4.22-9.8,3.4c-3.25-.78-5.55-3.63-7.35-7.09-4.81-19.31.56-40.5,5.42-59.89-7.67,11.44-14,23.07-20,35.39l-12.29,25.22c-2.32,4.76-8.58,6.81-12.36,3.94-1.11-.84-1.78-4.16-1.64-5.82,1.42-16.8.79-34.67-3.59-51.73-4.67,22.1-12.66,55.27-31.42,70.14-7.41,5.87-17.23,8.26-26.03,5.05-5.41-1.97-10.11-7.1-8.57-13.31Z"/>
    <path class="cls-3" d="M399.39,444.85c-5.62,8.67-13.28,16.91-23.22,12.83-2.92-1.2-5.42-4.88-6.66-8.76-3.98,8.33-14.75,18.71-24.19,12.68-2.11-1.35-3.19-4.77-4.04-8.31-4.87,10.05-15.51,18.92-24.79,13.42-15.79-9.36-.99-63.84,24.76-62.13,3.75.25,6.02,2.24,8.77,5.64.04-4.66,3.15-7.67,7.24-7.51,1.22.05,3.79.91,4.37,1.73.7.98.82,3.26.43,4.82-3.15,12.67-6.12,24.7-8.6,37.46-.25,1.29.95,4.13,1.93,4.84,4.04,2.94,11.91-9.28,12.9-15.26,1.94-11.78,5.08-22.91,12.9-31.92,4.9-5.65,11.07-9.46,19.06-7.98,2.05.38,4.27,2.44,5.9,4.27l6.06-27.99c.84-3.89,1.32-6.7,5.32-7.33,2.58-.41,8.83,1.06,7.83,5.53l-12.12,54.16c-1,4.45-3.8,15.6-.34,17.7,4.54,2.76,12.31-10.7,13.01-15.76,1.5-10.8,3.83-20.63,10.69-29.03,4.52-5.53,10.59-9.26,17.84-9.08,7.4.19,12.36,5.99,11.88,13.65-.85,13.62-11.99,24.11-26.3,25.27-.93,3.56.49,8.11,3.14,10.52,3.21,2.92,8.31,2.79,12.41.94,14.77-6.67,14.7-22.48,19.87-23.85,8.15-2.16-2.54,33.83-29.33,35.11-8.26.39-14.81-4.17-18.44-11.11-4.49,8.17-14.13,19-23.52,14.01-3.04-1.62-4.77-5.24-4.78-8.58ZM456.64,400.86c0-1.5-1.86-3.92-3.12-3.8-7.81.75-12.73,15.86-13.44,23.37,9.89-1.38,16.59-9.94,16.56-19.58ZM397.52,434.18c2.08-5.46,10.17-28.21,2.06-29.77-12.14-2.33-23.58,39.95-14.74,42.69,5.66,1.76,10.87-8.17,12.68-12.92ZM340.58,441.11c2-5.56,9.76-26.2,2.17-27.85-1.75-.38-5.55.61-6.85,2.19-8.22,9.98-12.38,22.64-12.19,35.7.03,1.73,1.4,4.24,2.58,4.93,5.79,3.36,12.52-10.02,14.3-14.97Z"/>
    <path class="cls-3" d="M462.24,269.99c-.2,2.97-2.17,5.96-3.75,6.94-2.01,1.23-5.54,1.51-7.75.08-2.01-1.3-2.87-5.24-2.62-7.4s1.99-5.14,4.63-6.53c1.46-.76,4.84-.45,6.18.19,1.7.81,3.5,3.73,3.31,6.72Z"/>
  </g>
  <text class="cls-4" transform="translate(204.67 218.31) rotate(-27.65)"><tspan x="0" y="0">B</tspan></text>
  <text class="cls-4" transform="translate(222.58 209.02) rotate(-21.86)"><tspan x="0" y="0">A</tspan></text>
  <text class="cls-4" transform="translate(242.26 201.27) rotate(-15.71)"><tspan x="0" y="0">K</tspan></text>
  <text class="cls-4" transform="translate(263.18 195.58) rotate(-9.78)"><tspan x="0" y="0">E</tspan></text>
  <text class="cls-4" transform="translate(282.72 192.42) rotate(-4.67)"><tspan x="0" y="0">D</tspan></text>
  <text class="cls-4" transform="translate(304.48 191.15) rotate(.42)"><tspan x="0" y="0"> </tspan></text>
  <text class="cls-4" transform="translate(313.7 191.15) rotate(4.34)"><tspan x="0" y="0">F</tspan></text>
  <text class="cls-4" transform="translate(331.88 192.59) rotate(9.99)"><tspan x="0" y="0">R</tspan></text>
  <text class="cls-4" transform="translate(352.65 196.42) rotate(15.86)"><tspan x="0" y="0">E</tspan></text>
  <text class="cls-4" transform="translate(371.7 201.97) rotate(21.56)"><tspan x="0" y="0">S</tspan></text>
  <text class="cls-4" transform="translate(390.08 209.32) rotate(27.55)"><tspan x="0" y="0">H</tspan></text>
  <text class="cls-5" transform="translate(169.66 571.44) rotate(39.98)"><tspan x="0" y="0">B</tspan></text>
  <text class="cls-5" transform="translate(186.51 585.32) rotate(33.77)"><tspan x="0" y="0">A</tspan></text>
  <text class="cls-5" transform="translate(205.64 597.84) rotate(27.28)"><tspan x="0" y="0">K</tspan></text>
  <text class="cls-5" transform="translate(226.55 608.29) rotate(20.9)"><tspan x="0" y="0">E</tspan></text>
  <text class="cls-5" transform="translate(246.71 615.79) rotate(14.46)"><tspan x="0" y="0">D</tspan></text>
  <text class="cls-5" transform="translate(269.15 621.13) rotate(9.64)"><tspan x="0" y="0"> </tspan></text>
  <text class="cls-5" transform="translate(279.59 623.13) rotate(4.06)"><tspan x="0" y="0">W</tspan></text>
  <text class="cls-5" transform="translate(307.89 624.52) rotate(-1.74)"><tspan x="0" y="0">I</tspan></text>
  <text class="cls-5" transform="translate(319.93 624.15) rotate(-6.31)"><tspan x="0" y="0">T</tspan></text>
  <text class="cls-5" transform="translate(340.19 621.77) rotate(-12.59)"><tspan x="0" y="0">H</tspan></text>
  <text class="cls-5" transform="translate(363.09 616.2) rotate(-17.42)"><tspan x="0" y="0"> </tspan></text>
  <text class="cls-5" transform="translate(372.96 613.13) rotate(-21.64)"><tspan x="0" y="0">L</tspan></text>
  <text class="cls-5" transform="translate(390.15 606.27) rotate(-27.59)"><tspan x="0" y="0">O</tspan></text>
  <text class="cls-5" transform="translate(411.37 594.87) rotate(-34.09)"><tspan x="0" y="0">V</tspan></text>
  <text class="cls-5" transform="translate(429.45 582.33) rotate(-40.32)"><tspan x="0" y="0">E</tspan></text>
  <text class="cls-2" transform="translate(176.12 542.31)"><tspan x="0" y="0">• COOKIES •</tspan></text>
  <path class="cls-1" d="M572.94,396c0,15.39-15.63,29.22-18.2,43.87-2.64,15.07,7.28,33.4,2.16,47.45-5.21,14.3-24.63,21.95-32.16,34.96-7.6,13.13-4.56,33.76-14.26,45.31-9.73,11.58-30.59,12.15-42.16,21.88s-15.71,30.15-28.84,37.75-32.79.96-47.1,6.16c-14.06,5.12-24.97,22.91-40.04,25.55s-30.97-10.39-46.36-10.39-31.7,12.95-46.36,10.39c-15.07-2.64-25.99-20.43-40.04-25.55-14.3-5.21-34.09,1.36-47.1-6.16-13.13-7.6-17.29-28.05-28.84-37.75s-32.44-10.3-42.16-21.88-6.66-32.18-14.26-45.31-26.95-20.65-32.16-34.96c-5.12-14.06,4.8-32.38,2.16-47.45-2.57-14.65-18.2-28.49-18.2-43.87s15.63-29.22,18.2-43.87c2.64-15.07-7.28-33.4-2.16-47.45s24.63-21.95,32.16-34.96c7.6-13.13,4.56-33.76,14.26-45.31s30.59-12.15,42.16-21.88,15.71-30.15,28.84-37.75,32.79-.96,47.1-6.16,24.97-22.91,40.04-25.55,30.97,10.39,46.36,10.39,31.7-12.95,46.36-10.39c15.07,2.64,25.99,20.43,40.04,25.55s34.09-1.36,47.1,6.16c13.13,7.6,17.29,28.05,28.84,37.75s32.44,10.3,42.16,21.88c9.7,11.54,6.66,32.18,14.26,45.31,7.52,13.01,26.95,20.65,32.16,34.96,5.12,14.06-4.8,32.38-2.16,47.45s18.2,28.49,18.2,43.87Z"/>
</svg>