<?xml version="1.0" encoding="UTF-8"?>
<svg id="Layer_1" data-name="Layer 1" xmlns="http://www.w3.org/2000/svg" viewBox="0 0 798.02 311.64">
  <defs>
    <style>
      .cls-1, .cls-2 {
        fill: #f4e3ef;
      }

      .cls-2 {
        font-family: ArialRoundedMTBold, 'Arial Rounded MT Bold';
        font-size: 65.35px;
        letter-spacing: .04em;
      }
    </style>
  </defs>
  <g>
    <path class="cls-1" d="M247.15,162.23l-15.26,9.85c-4.26,6.17-6.51,14.17-11.99,19.62-10.17,10.13-24.35,11.6-29.64,3.67-5.19-7.78,3.09-17.4,10.91-20.56,6.04-2.44,12.18-4.5,18.51-6.67,1.4-.48,2.22-3.41,2.95-6.3-2.56,2.46-6.26,5.23-10.21,5.96-7.07,1.31-12.1-3.4-13.97-9.45-5.46,7.33-15.84,15.32-23.34,9.68-2.09-1.57-3.3-5.11-3.66-8.17-4.7,7.21-14.64,14.98-23.45,9.43-13.6-8.57,1.21-53.33,24.14-57.02,5.32-.86,9.75,2.01,12.52,5.19,1.5-2.61,3.54-4.3,5.66-5.04,1.84-.64,7.33,1.57,6.7,3.78-3.09,10.69-7.07,20.21-10.77,30.81-.93,2.66-3.62,11.79-.33,12.24,5.26.71,11.73-9.23,13.1-13.89,3.97-13.5,12.1-32.77,27.71-34.95,4.81-.67,9.25,1.86,11.9,4.95,1.84-2.35,3.85-4.22,5.62-4.77,2.1-.65,7.88,1.74,6.95,4.45l-16.3,47.28c6.71-4.27,13.74-8.96,16.92-16.58,4.13-9.89,7.46-19.91,10.79-30.13,1.28-3.94,2.33-6.47,6.81-5.97,3.29.37,6.73,2.61,5.1,7.91,3.4-5.12,14.1-12.76,21.31-6.51,5.54,4.8,1.8,15.23-.36,21.22l-6.88,19.05c-.34.95.63,3.69,1.45,4.27,4.1,2.94,12.61-8.94,14.03-14.41,2.85-10.98,6.85-21.05,15.49-28.31,6.81-5.72,16.78-7.42,23.22-.68,4.4,4.61,4.86,11.51,4.26,17.81,5.98,1.05,9.68-3.61,11.48-8.81l13.31-38.61c.88-2.56,4.92-2.9,7.41-2.35,2.01.44,5.04,3.77,4.09,6.46l-18.74,53.35c-1.21,3.46-3.7,13.25-.39,15.43,6,3.95,13.69-10.12,15.83-16.16l8.5-23.95c1.37-3.85,2.07-6.62,6.82-6.36,2.5.14,7.37,2.23,5.92,6.37l-12.04,34.35c-.43,1.24.35,4.35,1.25,5.24s4.14.29,5.18-.54c13.36-10.63,8.14-27.87,26.08-41.41,6.87-5.19,16.42-4.83,21.61,2.15,1.85-2.23,3.95-3.92,6.12-4.36,1.87-.38,7.16,2.25,6.39,4.46l-9.69,27.8c-2.32,6.66-5.36,18.81,1.47,23.04,2.76,1.71,6.69,1.89,9.87.3,8.11-4.05,13.59-13.9,12.9-22.46-.12-1.54-2-5.08-1.23-6.19,1.04-1.52,5.47-1.33,6.87-.3,1.5,1.1,3.68,3.82,3.97,6.31,1.69,14.7-8.36,28.96-22.73,31.65-12.95,2.42-24.76-6.05-25.48-18.85-4.87,7.12-13.55,12.9-22.26,7.77-2.71-1.6-4.54-5.49-5.64-9.55-3.37,5.07-8.43,9.78-14.72,10.81-6.02.99-10.69-2.54-11.97-8.04-3.99,3.82-8.02,7.24-12.95,8.08-7.58,1.28-13.77-3.51-14.09-11.15-.25-5.96,1.38-11.75,2.87-17.86l-7.35,1.94c-2.59,7.88-5.81,14.74-11.31,20.59-6.1,6.47-15.34,9.03-23.39,4.38-3.12-1.8-5.37-6.03-7.12-9.1-5.36,7.16-15.48,15.85-24,9.95-6.91-4.79-2.58-17.02-.05-23.85l6.19-16.74c.37-1-.1-3.21-.54-4.02-.53-.97-3.89-.95-4.84-.19-11.85,9.48-16.57,27.96-21.5,43.15-.68,2.09-3.32,3.89-5.12,4.05-2.76.24-5.81-1.05-6.86-4.53ZM431.84,145.22c2.62-5.5,11.93-24.28,4.94-27.01-11.14-4.36-25.86,32.13-18.46,37.68,4.56,3.42,11.48-6.39,13.52-10.67ZM336.05,133.83c-3.72-4.99-2.1-10.22,1.65-14.36-8.85-16.09-30.39,32.72-17.93,36.94,7.41,2.51,15.29-16.34,16.28-22.58ZM227.81,144.42c2.18-4.91,10.98-23.37,4.24-25.29-11.92-3.38-26.54,34.78-18.74,38.53,5.63,2.71,12.61-9,14.49-13.25ZM171.78,148.89c2.48-4.93,13.13-26.14,5.73-28.08-12.03-3.15-26.98,35.28-19.78,39.39,5.01,2.85,11.89-7.02,14.05-11.31ZM204.07,192.08c7.21-3.32,10.65-9.61,13-15.73-6.64,1.68-22.96,7.8-19.02,14.66.68,1.19,4.48,1.77,6.02,1.06Z"/>
    <path class="cls-1" d="M29.55,176.61c5.39-2.15,10.13-6.54,13.48-11.18,5.93-8.19,11.13-16.32,15.55-25.46l21.62-44.67c2.13-4.41,4.54-8.27,7.36-12.78-13.91-3.86-29.27-1.57-39.73,8.75-8.46,8.35-12.05,22.79-5,27.62,1.77,1.21,5.94.74,8.49.79,2.71,1.2-.13,5.89-2.77,7.19-8.04,3.96-17.29.18-20.97-8.26-3.77-8.63-1.94-18.41,3.12-26.53,13.98-22.49,46.5-25.42,68.52-13.57,1.63.94-.04,5.53-.2,7.63l-4.18,54.39c12.76-21.63,24.96-44.21,42-62.5,3.04-2.45,6.61-3.88,10.37-2.98,3.9.94,5.6,4.41,4.2,7.99-8.57,21.92-16.36,43.73-21.7,66.71-2.25,9.69-2.23,18.51-.73,27.88-.61,3.18-5.99,4.97-8.47,4.43-18.14-3.91,4.98-62.62,7.79-75.61-14.16,20.62-25.87,42.2-38.15,64.23-1.27,2.27-4.73,3.71-6.78,3.99-1.9.26-6.45-2.11-6.09-4.45,3.05-19.85,5.98-38.54,7.33-58.66-10.02,20.73-21.68,52.42-37.96,68.86-5.75,5.81-12.95,9.3-20.96,9.3-8.03,0-14.97-3.84-18.25-10.48-3.27-6.65-2.88-14.79,2.13-20.79,4.08-4.89,11.95-5.84,14.35-1.63,1.75,3.06-10.13,4.21-6.78,14.88,1.38,4.39,6.89,7.16,12.43,4.94Z"/>
    <path class="cls-1" d="M409.41,94.63c-.57,2.92-2.9,5.64-4.6,6.41-2.15.97-5.69.8-7.7-.9-1.83-1.54-2.18-5.56-1.66-7.67s2.62-4.85,5.42-5.89c1.54-.57,4.86.16,6.11.97,1.59,1.02,3,4.15,2.43,7.08Z"/>
  </g>
  <text class="cls-2" transform="translate(192.51 251.97)"><tspan x="0" y="0">• COOKIES •</tspan></text>
  <g>
    <path class="cls-1" d="M473,161.78c4.72-11.09,4.73,6.78,16.23,5.72,4.92-.45,10.13-2.36,14.08-5.82,16.97-14.86,29.8-43.91,36.71-65.26,1.31-4.04,2.72-7.63,4.26-11.44-15.17-4.35-31.93,1.47-40.36,14.91-4.51,7.19-5.11,17.8,1.6,20.29,1.68.62,5.11-.1,7.59.07,2.27.63,0,5.54-1.99,6.55-5.24,2.66-10.69,2.83-15.75-.26-3.9-2.37-7.28-7.39-7.78-13.06-1.18-13.48,6.83-25.62,18.69-32.28,15.34-8.61,33.26-8.21,49.82-.56,5.7,20.08,7.03,40.81,4.22,62.13,16.83-22.04,30.45-41.17,51.01-58.71,3.96-2.29,8.55-3.41,12.46.29,1.55,1.46,1.32,5.29.07,7.4-10.52,17.84-19.16,36.06-24.34,56.18-6.08,23.6,3.29,25.65.33,28.9-2.9,3.2-6.98,3.15-10.22,1.79s-4.9-4.47-6.13-8.17c-1.68-19.83,7-39.9,14.87-58.26-9.39,10.07-17.49,20.55-25.38,31.76l-16.15,22.95c-3.04,4.33-9.55,5.36-12.83,1.92-.96-1.01-1.1-4.39-.7-6,4.07-16.36,6.29-34.1,4.68-51.64-8.12,21.08-21.29,52.55-42.18,64.25-8.25,4.62-18.32,5.41-26.5.84-5.03-2.81-8.85-8.62-6.35-14.5Z"/>
    <path class="cls-1" d="M702.73,154.83c-6.93,7.67-15.8,14.59-24.97,8.98-2.69-1.65-4.58-5.68-5.18-9.71-5.26,7.59-17.54,16.13-25.9,8.67-1.87-1.67-2.39-5.21-2.66-8.84-6.41,9.15-18.32,16.22-26.61,9.31-14.1-11.75,9.17-63.18,34.33-57.4,3.66.84,5.59,3.17,7.77,6.97.78-4.6,4.33-7.07,8.34-6.26,1.19.24,3.6,1.5,4.04,2.4.53,1.08.29,3.35-.34,4.82-5.13,12-9.97,23.41-14.45,35.62-.45,1.23.28,4.23,1.14,5.09,3.52,3.55,13.24-7.27,15.16-13.01,3.79-11.32,8.66-21.81,17.81-29.46,5.74-4.8,12.43-7.58,20.08-4.85,1.96.7,3.82,3.09,5.15,5.15l10.43-26.67c1.45-3.7,2.37-6.41,6.42-6.39,2.61.01,8.55,2.45,6.85,6.7l-20.58,51.54c-1.69,4.24-6.23,14.8-3.15,17.42,4.05,3.45,13.85-8.61,15.35-13.49,3.19-10.43,7.06-19.76,15.17-26.95,5.34-4.74,11.92-7.46,19.06-6.12,7.28,1.36,11.25,7.88,9.56,15.36-3.01,13.31-15.67,21.9-29.98,20.76-1.49,3.37-.81,8.08,1.43,10.89,2.71,3.39,7.76,4.08,12.1,2.9,15.64-4.23,18.09-19.86,23.41-20.39,8.39-.84-7.89,33-34.54,30-8.21-.92-13.96-6.47-16.44-13.9-5.73,7.36-16.98,16.51-25.45,10.1-2.75-2.08-3.88-5.93-3.36-9.23ZM766.25,120.51c.23-1.48-1.21-4.16-2.47-4.24-7.83-.5-15.09,13.63-16.99,20.94,9.98.21,17.96-7.17,19.46-16.7ZM702.58,144c2.92-5.06,14.53-26.24,6.77-29.07-11.61-4.23-29.63,35.69-21.34,39.8,5.31,2.64,12.03-6.34,14.57-10.74ZM645.26,141.79c2.86-5.17,13.8-24.32,6.57-27.15-1.67-.65-5.57-.28-7.11,1.07-9.7,8.55-15.82,20.38-17.71,33.31-.25,1.71.7,4.41,1.76,5.28,5.18,4.24,13.96-7.9,16.49-12.5Z"/>
  </g>
</svg>